<svg version="1.0" preserveAspectRatio="xMidYMid meet" viewBox="93.74249999999999 96.74249767818002 186 182.24999562600001" zoomAndPan="magnify" xmlns:xlink="http://www.w3.org/1999/xlink" xmlns="http://www.w3.org/2000/svg" style="max-height: 500px" width="186" height="182.24999562600001"><defs><clipPath id="f468e16a66"><path clip-rule="nonzero" d="M 0.5625 0.5625 L 186.4375 0.5625 L 186.4375 186.4375 L 0.5625 186.4375 Z M 0.5625 0.5625"/></clipPath><clipPath id="1913331754"><path clip-rule="nonzero" d="M 0.5625 0.5625 L 186.4375 0.5625 L 186.4375 186.4375 L 0.5625 186.4375 Z M 0.5625 0.5625"/></clipPath><clipPath id="9a336b0528"><rect height="187" y="0" width="187" x="0"/></clipPath><clipPath id="3e2e963320"><path clip-rule="nonzero" d="M 37.652344 36 L 152.898438 36 L 152.898438 150.910156 L 37.652344 150.910156 Z M 37.652344 36"/></clipPath><clipPath id="7560fbc386"><rect height="187" y="0" width="187" x="0"/></clipPath></defs><rect fill-opacity="1" height="449.999989" y="-37.499999" fill="#ffffff" width="450" x="-37.5"/><rect fill-opacity="1" height="449.999989" y="-37.499999" fill="#ffffff" width="450" x="-37.5"/><g transform="matrix(1, 0, 0, 1, 94, 94)"><g clip-path="url(#7560fbc386)"><g clip-path="url(#f468e16a66)"><g><g clip-path="url(#9a336b0528)"><g clip-path="url(#1913331754)"><path fill-rule="nonzero" fill-opacity="1" d="M 0.5625 0.5625 L 186.4375 0.5625 L 186.4375 186.4375 L 0.5625 186.4375 Z M 0.5625 0.5625" fill="#173eef"/></g></g></g></g><g clip-path="url(#3e2e963320)"><path fill-rule="nonzero" fill-opacity="1" d="M 79.429688 36.105469 L 110.945312 36.105469 C 122.109375 74.277344 141.910156 79.976562 152.71875 79.976562 L 152.71875 112.8125 C 143.695312 112.8125 127.359375 110.734375 111.605469 98.1875 L 111.605469 150.867188 L 78.769531 150.867188 L 78.769531 98.191406 C 63.015625 110.734375 46.679688 112.8125 37.652344 112.8125 L 37.652344 79.976562 C 48.464844 79.976562 68.265625 74.277344 79.429688 36.105469 Z M 79.429688 36.105469" fill="#ffffff"/></g></g></g></svg>